HIERARCHY
ROOT Hips
{
  OFFSET 5.84602e-005 68.8428 3.50346
  CHANNELS 6 Xposition Yposition Zposition Zrotation Xrotation Yrotation
  JOINT Spine
  {
    OFFSET 0 8.597 -4.6522
    CHANNELS 3 Zrotation Xrotation Yrotation
    JOINT Spine1
    {
      OFFSET 0 7.8454 0.4098
      CHANNELS 3 Zrotation Xrotation Yrotation
      JOINT Spine2
      {
        OFFSET 0 9.7078 -2.1609
        CHANNELS 3 Zrotation Xrotation Yrotation
        JOINT Neck
        {
          OFFSET 0 21.8761 -0.4549
          CHANNELS 3 Zrotation Xrotation Yrotation
          JOINT Head
          {
            OFFSET 0 12.3537 3.3602
            CHANNELS 3 Zrotation Xrotation Yrotation
            End Site
            {
              OFFSET 0.0001 18.9506 0.5657
            }
          }
        }
        JOINT LeftShoulder
        {
          OFFSET 2.2086 21.1115 7.2329
          CHANNELS 3 Zrotation Xrotation Yrotation
          JOINT LeftArm
          {
            OFFSET 13.1193 3.0282 -4.8998
            CHANNELS 3 Zrotation Xrotation Yrotation
            JOINT LeftForeArm
            {
              OFFSET 27.4081 -0.0973053 -0.2375
              CHANNELS 3 Zrotation Xrotation Yrotation
              JOINT LeftHand
              {
                OFFSET 22.8641 0.0662994 -0.1369
                CHANNELS 3 Zrotation Xrotation Yrotation
                JOINT LeftHandIndex1
                {
                  OFFSET 8.8614 0.775009 2.4612
                  CHANNELS 3 Zrotation Xrotation Yrotation
                  JOINT LeftHandIndex2
                  {
                    OFFSET 3.3146 -0.808304 0.5841
                    CHANNELS 3 Zrotation Xrotation Yrotation
                    JOINT LeftHandIndex3
                    {
                      OFFSET 2.2628 -0.552002 0.3989
                      CHANNELS 3 Zrotation Xrotation Yrotation
                      End Site
                      {
                        OFFSET 1.6102 -0.4807 0.2612
                      }
                    }
                  }
                }
                JOINT LeftHandMiddle1
                {
                  OFFSET 8.9937 0.895004 0.2143
                  CHANNELS 3 Zrotation Xrotation Yrotation
                  JOINT LeftHandMiddle2
                  {
                    OFFSET 4.0984 0.0113983 -0.0242
                    CHANNELS 3 Zrotation Xrotation Yrotation
                    JOINT LeftHandMiddle3
                    {
                      OFFSET 2.2716 0.00689697 -0.0138001
                      CHANNELS 3 Zrotation Xrotation Yrotation
                      End Site
                      {
                        OFFSET 2.0404 -0.1441 0.0027
                      }
                    }
                  }
                }
                JOINT LeftHandRing1
                {
                  OFFSET 8.5234 0.597198 -2.0164
                  CHANNELS 3 Zrotation Xrotation Yrotation
                  JOINT LeftHandRing2
                  {
                    OFFSET 3.7188 -0.188293 -0.2328
                    CHANNELS 3 Zrotation Xrotation Yrotation
                    JOINT LeftHandRing3
                    {
                      OFFSET 2.1191 -0.106598 -0.1332
                      CHANNELS 3 Zrotation Xrotation Yrotation
                      End Site
                      {
                        OFFSET 1.8737 -0.2304 -0.0886
                      }
                    }
                  }
                }
                JOINT LeftHandPinky1
                {
                  OFFSET 7.9094 -0.601089 -3.4825
                  CHANNELS 3 Zrotation Xrotation Yrotation
                  JOINT LeftHandPinky2
                  {
                    OFFSET 2.2874 -0.477005 -0.6314
                    CHANNELS 3 Zrotation Xrotation Yrotation
                    JOINT LeftHandPinky3
                    {
                      OFFSET 1.6774 -0.349396 -0.4633
                      CHANNELS 3 Zrotation Xrotation Yrotation
                      End Site
                      {
                        OFFSET 1.4888 -0.4091 -0.3416
                      }
                    }
                  }
                }
                JOINT LeftHandThumb1
                {
                  OFFSET 1.833 -1.3875 1.3896
                  CHANNELS 3 Zrotation Xrotation Yrotation
                  JOINT LeftHandThumb2
                  {
                    OFFSET 3.4129 -1.121 2.5732
                    CHANNELS 3 Zrotation Xrotation Yrotation
                    JOINT LeftHandThumb3
                    {
                      OFFSET 2.2474 -0.804199 1.6192
                      CHANNELS 3 Zrotation Xrotation Yrotation
                      End Site
                      {
                        OFFSET 1.6527 -0.5689 1.1317
                      }
                    }
                  }
                }
              }
            }
          }
        }
        JOINT RightShoulder
        {
          OFFSET -2.2086 21.1115 7.2329
          CHANNELS 3 Zrotation Xrotation Yrotation
          JOINT RightArm
          {
            OFFSET -13.1216 3.0287 -4.9007
            CHANNELS 3 Zrotation Xrotation Yrotation
            JOINT RightForeArm
            {
              OFFSET -27.4081 -0.0973053 -0.2375
              CHANNELS 3 Zrotation Xrotation Yrotation
              JOINT RightHand
              {
                OFFSET -22.8641 0.0664063 -0.1369
                CHANNELS 3 Zrotation Xrotation Yrotation
                JOINT RightHandIndex1
                {
                  OFFSET -8.8614 0.774994 2.4612
                  CHANNELS 3 Zrotation Xrotation Yrotation
                  JOINT RightHandIndex2
                  {
                    OFFSET -3.3146 -0.808304 0.5841
                    CHANNELS 3 Zrotation Xrotation Yrotation
                    JOINT RightHandIndex3
                    {
                      OFFSET -2.2628 -0.552002 0.3989
                      CHANNELS 3 Zrotation Xrotation Yrotation
                      End Site
                      {
                        OFFSET -1.6102 -0.4807 0.2612
                      }
                    }
                  }
                }
                JOINT RightHandMiddle1
                {
                  OFFSET -8.9937 0.894989 0.2143
                  CHANNELS 3 Zrotation Xrotation Yrotation
                  JOINT RightHandMiddle2
                  {
                    OFFSET -4.0984 0.0113983 -0.0242
                    CHANNELS 3 Zrotation Xrotation Yrotation
                    JOINT RightHandMiddle3
                    {
                      OFFSET -2.2716 0.00691223 -0.0138001
                      CHANNELS 3 Zrotation Xrotation Yrotation
                      End Site
                      {
                        OFFSET -2.0404 -0.1441 0.0027
                      }
                    }
                  }
                }
                JOINT RightHandRing1
                {
                  OFFSET -8.5234 0.597198 -2.0164
                  CHANNELS 3 Zrotation Xrotation Yrotation
                  JOINT RightHandRing2
                  {
                    OFFSET -3.7188 -0.188309 -0.2328
                    CHANNELS 3 Zrotation Xrotation Yrotation
                    JOINT RightHandRing3
                    {
                      OFFSET -2.1191 -0.106598 -0.1332
                      CHANNELS 3 Zrotation Xrotation Yrotation
                      End Site
                      {
                        OFFSET -1.8737 -0.2304 -0.0886
                      }
                    }
                  }
                }
                JOINT RightHandPinky1
                {
                  OFFSET -7.9094 -0.601105 -3.4825
                  CHANNELS 3 Zrotation Xrotation Yrotation
                  JOINT RightHandPinky2
                  {
                    OFFSET -2.2874 -0.477005 -0.6314
                    CHANNELS 3 Zrotation Xrotation Yrotation
                    JOINT RightHandPinky3
                    {
                      OFFSET -1.6774 -0.349396 -0.4633
                      CHANNELS 3 Zrotation Xrotation Yrotation
                      End Site
                      {
                        OFFSET -1.4888 -0.4091 -0.3416
                      }
                    }
                  }
                }
                JOINT RightHandThumb1
                {
                  OFFSET -1.833 -1.38751 1.3896
                  CHANNELS 3 Zrotation Xrotation Yrotation
                  JOINT RightHandThumb2
                  {
                    OFFSET -3.41299 -1.12099 2.5732
                    CHANNELS 3 Zrotation Xrotation Yrotation
                    JOINT RightHandThumb3
                    {
                      OFFSET -2.24741 -0.804108 1.6192
                      CHANNELS 3 Zrotation Xrotation Yrotation
                      End Site
                      {
                        OFFSET -1.6527 -0.5689 1.1317
                      }
                    }
                  }
                }
              }
            }
          }
        }
      }
    }
  }
  JOINT RightUpLeg
  {
    OFFSET -9.1966 3.8861 -0.7581
    CHANNELS 3 Zrotation Xrotation Yrotation
    JOINT RightLeg
    {
      OFFSET -0.7359 -41.0265 0
      CHANNELS 3 Zrotation Xrotation Yrotation
      JOINT RightFoot
      {
        OFFSET 0 -40.2855 0
        CHANNELS 3 Zrotation Xrotation Yrotation
        JOINT RightToeBase
        {
          OFFSET 0 -5.6122 11.7359
          CHANNELS 3 Zrotation Xrotation Yrotation
          End Site
          {
            OFFSET 0 0 7.8731
          }
        }
      }
    }
  }
  JOINT LeftUpLeg
  {
    OFFSET 9.1965 3.8864 -0.7581
    CHANNELS 3 Zrotation Xrotation Yrotation
    JOINT LeftLeg
    {
      OFFSET 0.7359 -41.0268 0
      CHANNELS 3 Zrotation Xrotation Yrotation
      JOINT LeftFoot
      {
        OFFSET 0 -40.2855 0
        CHANNELS 3 Zrotation Xrotation Yrotation
        JOINT LeftToeBase
        {
          OFFSET 0 -5.6122 11.7359
          CHANNELS 3 Zrotation Xrotation Yrotation
          End Site
          {
            OFFSET 0 0 7.8731
          }
        }
      }
    }
  }
}
MOTION
Frames:	4
Frame Time:	0.0333333
5.84602e-005 68.8428 3.50346 0 0 -0 0 0 -0 0 0 -0 0 0 -0 0 0 -0 0 0 -0 0 0 -0 0 0 -0 0 0 -0 0 0 -0 0 0 -0 0 0 -0 0 0 -0 0 0 -0 -0.0146107 -8.87603e-005 -2.63497e-007 2.99804e-018 -2.42657e-020 -1.42182e-022 0 0 -0 -0.0187562 -0.001176 5.858e-005 5.06224e-018 3.88251e-019 1.21329e-020 0 0 -0 -0.012269 -0.00324817 0.000675346 -1.74678e-018 3.88251e-019 -0 0 0 -0 0 0 -0 0 0 -0 0 0 -0 0 0 -0 0 0 -0 0 0 -0 0 0 -0 0 0 -0 0 0 -0 0 0 -0 0.0149955 -9.10982e-005 2.64101e-007 -9.69331e-018 1.21329e-020 -4.7394e-023 0 0 -0 0.0189956 -0.00119102 -5.96516e-005 -5.41541e-019 0 2.42657e-020 0 0 -0 0.0122698 -0.00324857 -0.000673756 -2.00796e-019 0 -1.94126e-019 0 0 -0 0 0 -0 0 0 -0 3.39842 1.33031 -0.0637918 -5.65207e-008 0.834868 -0.000436188 -3.39935 -2.16518 -0.0642563 -8.89002e-024 -1.18485e-023 -1.48106e-024 -3.39844 1.35642 0.0640283 -3.18788e-007 0.782166 -0.000588827 3.39931 -2.13858 0.0634662 1.1399e-023 0 -0 
2.62209 49.1019 -11.7065 0 0 -0 -0.00375011 0.545187 -0.0296242 -0.00721879 1.09038 -0.0592166 -0.0072188 1.09038 -0.0592167 -0.0335233 0.0177035 0.0903023 1.04281e-008 -2.13371e-007 -1.31914e-008 -2.65288 -0.064492 2.11002e-007 -7.90339 -0.145156 -12.929 -1.96051 -21.4626 -5.34467 -2.32061 -4.97661e-006 -1.53269e-006 -2.34097e-007 1.64764e-006 2.40946e-007 2.34096e-007 -1.64764e-006 -2.40946e-007 -2.34097e-007 1.64764e-006 2.40946e-007 -2.34097e-007 1.64764e-006 2.40946e-007 -0.0146637 -9.2396e-005 1.07611e-006 -2.34134e-007 1.64761e-006 2.41157e-007 -2.34097e-007 1.64764e-006 2.40946e-007 -0.0187294 -0.00117494 5.95849e-005 -2.34142e-007 1.6476e-006 2.41218e-007 -2.34097e-007 1.64764e-006 2.40946e-007 -0.0122603 -0.00324732 0.00067609 -2.34112e-007 1.64761e-006 2.41131e-007 -2.34097e-007 1.64764e-006 2.40946e-007 2.34096e-007 -1.64764e-006 -2.40946e-007 -2.34097e-007 1.64764e-006 2.40946e-007 2.65172 -0.0645732 2.68897e-006 7.90193 -0.145967 12.9278 1.38503e-007 -5.02916e-007 4.97189 2.31945 4.4668e-007 1.86245e-006 -3.97569e-016 -3.97569e-016 3.18055e-015 3.97569e-015 0 6.36111e-015 3.57812e-015 1.19271e-015 3.18055e-015 -3.97569e-016 -3.97569e-016 3.18055e-015 0.0150687 -9.15228e-005 2.53691e-006 1.98785e-016 -3.97569e-016 -0 -3.97569e-016 -3.97569e-016 3.18055e-015 0.0189893 -0.00119048 -5.94345e-005 0 7.95139e-016 -0 -3.97569e-016 -3.97569e-016 3.18055e-015 0.0122785 -0.00325049 -0.000678451 1.59028e-015 1.19271e-015 -0 -3.97569e-016 -3.97569e-016 3.18055e-015 3.97569e-015 0 6.36111e-015 3.57812e-015 1.19271e-015 3.18055e-015 1.68324 -16.4284 -2.18068 0.874327 52.203 -1.07004 -6.12753 14.204 -0.329617 2.3848e-007 3.5624e-009 -6.40016e-009 -1.68423 -16.428 2.17905 -0.876976 52.2028 1.07138 6.12624 14.2039 0.329054 -1.93345e-007 1.01148e-009 -9.02721e-008 
5.31531 28.7503 -27.3384 0 0 -0 -0.00571489 1.10516 -0.0602402 -0.0102702 2.21032 -0.120404 -0.0102702 2.21032 -0.120404 -0.0767066 0.0404211 0.206404 1.1626e-008 6.1584e-007 -7.98064e-009 -5.37779 -0.130707 -9.4643e-007 -16.0871 -0.27087 -26.2093 -9.48987 -42.8415 -13.8114 -4.70423 -1.55919e-006 6.6315e-007 5.93321e-006 -9.6941e-007 8.15473e-007 3.50401e-006 2.03868e-007 2.42352e-007 3.79537e-006 -5.52825e-006 3.59194e-007 5.93321e-006 -9.6941e-007 8.15473e-007 -0.0146456 -8.74274e-005 -3.87946e-006 4.86421e-006 -3.24891e-006 5.86914e-007 5.93321e-006 -9.6941e-007 8.15473e-007 -0.018744 -0.00117099 5.77364e-005 4.86419e-006 -3.24894e-006 5.86753e-007 5.93321e-006 -9.6941e-007 8.15473e-007 -0.0122953 -0.00325076 0.000683274 4.86422e-006 -3.24894e-006 5.86851e-007 5.93321e-006 -9.6941e-007 8.15473e-007 3.50401e-006 2.03868e-007 2.42352e-007 3.79537e-006 -5.52825e-006 3.59194e-007 5.37543 -0.130872 3.78037e-006 16.0845 -0.272378 26.2069 -4.13287e-006 -1.55188e-007 10.0788 4.70186 1.07362e-006 4.971e-006 4.71895e-008 1.48541e-007 -3.65319e-008 1.57298e-008 4.95137e-008 -1.21773e-008 3.14596e-008 9.90275e-008 -2.43546e-008 4.71895e-008 1.48541e-007 -3.65319e-008 0.0149732 -9.13875e-005 5.05411e-006 3.14597e-008 9.90243e-008 -2.43676e-008 4.71895e-008 1.48541e-007 -3.65319e-008 0.0190484 -0.00119497 -6.64234e-005 3.14594e-008 9.90234e-008 -2.43714e-008 4.71895e-008 1.48541e-007 -3.65319e-008 0.0122342 -0.00323699 -0.000664392 8.09583e-008 -1.16296e-007 -8.85346e-007 4.71895e-008 1.48541e-007 -3.65319e-008 1.57298e-008 4.95137e-008 -1.21773e-008 3.14596e-008 9.90275e-008 -2.43546e-008 -0.748223 -33.5347 -5.49319 -170.443 77.2145 170.469 -7.2056 32.5053 -3.34206 7.95139e-016 -4.77083e-015 7.95139e-016 0.745536 -33.5268 5.48974 170.441 77.222 -170.471 7.20355 32.5052 3.34051 4.53563e-007 -3.32643e-008 -3.71081e-007 
7.43902 12.7009 -39.6843 0 0 -0 -0.00590959 1.54671 -0.0845061 -0.00954133 3.09342 -0.168945 -0.00954133 3.09342 -0.168945 -0.0431113 0.0227268 0.116102 2.26389e-009 -8.51815e-007 -5.23772e-010 -7.5265 -0.182914 -1.37369e-006 -22.5806 -0.338862 -36.6816 -23.8547 -58.1384 -27.5033 -6.5838 -2.52487e-006 -7.46623e-007 -2.39511e-006 -2.41223e-006 -1.15703e-006 3.18055e-015 -1.59028e-015 -6.36111e-015 3.18055e-015 1.59028e-015 -6.36111e-015 -2.39511e-006 -2.41223e-006 -1.15703e-006 -0.0146051 -8.76392e-005 3.58828e-006 3.18055e-015 0 6.36111e-015 -2.39511e-006 -2.41223e-006 -1.15703e-006 -0.0187332 -0.00117528 5.92378e-005 6.36111e-015 0 -0 -2.39511e-006 -2.41223e-006 -1.15703e-006 -0.0122048 -0.00323533 0.000669177 9.54166e-015 6.36111e-015 -6.36111e-015 -2.39511e-006 -2.41223e-006 -1.15703e-006 3.18055e-015 -1.59028e-015 -6.36111e-015 3.18055e-015 1.59028e-015 -6.36111e-015 7.52321 -0.183142 3.01075e-006 22.5773 -0.340762 36.6782 1.3062e-006 -5.45766e-007 14.1058 6.58051 -1.08133e-006 -1.28836e-005 3.38429e-007 7.37395e-007 -2.64172e-007 -4.94582e-006 2.64467e-006 3.59281e-007 2.6731e-006 1.83839e-007 -7.70492e-007 3.38429e-007 7.37395e-007 -2.64172e-007 0.0149838 -8.91253e-005 1.24185e-006 3.45709e-006 -2.4769e-007 -5.1336e-007 3.38429e-007 7.37395e-007 -2.64172e-007 0.0189803 -0.00118972 -6.2918e-005 3.45705e-006 -2.47696e-007 -5.13384e-007 3.38429e-007 7.37395e-007 -2.64172e-007 0.0122176 -0.00323252 -0.00067313 2.67386e-006 1.83566e-007 -7.7063e-007 3.38429e-007 7.37395e-007 -2.64172e-007 -4.94582e-006 2.64467e-006 3.59281e-007 2.6731e-006 1.83839e-007 -7.70492e-007 -3.52306 -46.9264 -11.4761 -174.411 37.7094 171.429 -5.47637 47.2732 -7.8339 -2.34751e-007 3.25388e-006 -1.85129e-006 3.51663 -46.9277 11.4688 174.41 37.7076 -171.433 5.4747 47.2729 7.83088 5.47206e-008 1.19297e-006 -1.24174e-006 
